<svg width="470" height="88" viewBox="0 0 470 88" fill="none" xmlns="http://www.w3.org/2000/svg">
    <path fill-rule="evenodd" clip-rule="evenodd"
        d="M21.346 1.03164C12.566 3.90864 5.25405 10.8556 1.49605 19.8916C-0.510951 24.7166 -0.495959 36.0086 1.52504 41.9396C3.43204 47.5366 9.63704 54.8196 15.353 58.1696C23.138 62.7316 36.558 62.9856 44.797 58.7266C49.991 56.0416 56.47 49.0156 59.138 43.1736C60.894 39.3276 61.408 36.4436 61.364 30.6736C61.321 24.8866 60.759 22.0316 58.903 18.1736C55.823 11.7706 49.132 5.08363 43.162 2.44363C37.372 -0.118374 26.919 -0.794361 21.346 1.03164ZM110.622 1.04662C100.957 3.76362 92.337 12.2637 89.476 21.8997C88.265 25.9777 87.95 32.8896 87.95 55.4206C87.95 73.0746 88.341 84.5366 88.985 85.7396C90.448 88.4736 95.395 88.3036 97.393 85.4506C98.62 83.6986 98.95 80.2946 98.95 69.3676C98.95 61.7446 99.287 55.6786 99.7 55.8886C110.924 61.5946 111.967 61.8786 120.259 61.4936C125.399 61.2546 129.808 60.4486 132.095 59.3296C137.881 56.4976 143.272 51.3276 146.482 45.5326C149.158 40.7006 149.449 39.2886 149.443 31.1736C149.437 23.7266 149.041 21.4326 147.15 17.8786C141.596 7.44462 132.379 1.10063 121.45 0.189628C117.878 -0.107372 113.496 0.239623 110.622 1.04662ZM190.95 0.556632C185.225 1.80963 179.005 5.53664 176.915 8.96364C174.116 13.5536 174.319 20.2806 177.393 24.8046C180.326 29.1206 185.759 31.8336 197.063 34.6276C201.676 35.7676 206.575 37.5266 207.95 38.5366C209.662 39.7936 210.547 41.5166 210.759 44.0016C211.03 47.1846 210.661 47.8796 207.759 49.6486C203.175 52.4436 193.503 52.4136 187.49 49.5876C185.049 48.4396 182.524 46.8646 181.878 46.0876C181.233 45.3096 179.421 44.6736 177.851 44.6736C175.897 44.6736 174.471 45.4756 173.331 47.2146C170.693 51.2406 172.716 54.1936 180.703 57.9776C186.959 60.9406 188.214 61.1736 197.95 61.1736C207.294 61.1736 208.941 60.8986 212.911 58.6736C219.145 55.1806 221.95 50.6806 221.95 44.1736C221.95 40.4306 221.317 38.0306 219.697 35.6256C218.457 33.7866 216.095 31.4966 214.447 30.5366C212.798 29.5766 206.603 27.4756 200.678 25.8676C194.754 24.2596 188.994 22.1186 187.88 21.1096C186.505 19.8656 185.949 18.2946 186.151 16.2246C186.379 13.8946 187.277 12.7456 189.95 11.3606C192.57 10.0046 194.9 9.66663 199.217 10.0176C203.49 10.3656 206.298 11.3306 210.056 13.7416C214.277 16.4506 215.576 16.8406 217.789 16.0666C219.603 15.4326 220.547 14.3076 220.754 12.5296C220.989 10.5236 220.126 9.12464 217.012 6.45864C214.786 4.55364 211.088 2.43265 208.794 1.74465C203.38 0.122651 195.367 -0.411368 190.95 0.556632ZM238.813 3.07564C237.887 5.10864 239.059 9.53065 246.434 31.8256C252.153 49.1136 255.852 58.7836 257.19 59.9466C259.391 61.8606 262.652 61.4766 264.556 59.0786C265.164 58.3116 268.048 49.2446 270.964 38.9296C273.88 28.6136 276.56 19.5936 276.919 18.8846C277.279 18.1756 279.487 24.7006 281.827 33.3846C289.07 60.2626 288.864 59.6906 291.673 60.7586C296.806 62.7096 297.814 60.8566 307.435 31.7886C316.916 3.13863 317.144 1.60265 312.015 0.84365C310.789 0.66165 308.999 1.22465 308.038 2.09365C307.077 2.96365 303.429 12.6646 299.932 23.6526C296.434 34.6396 293.409 43.4666 293.209 43.2666C292.899 42.9556 282.95 5.00165 282.95 4.12765C282.95 3.95665 282.243 3.10965 281.379 2.24465C279.297 0.163651 275.631 0.249637 273.731 2.42364C272.89 3.38564 269.852 12.2736 266.979 22.1736C264.106 32.0736 261.435 40.7526 261.043 41.4596C260.638 42.1906 257.638 34.3186 254.098 23.2386C250.67 12.5096 247.177 3.04363 246.336 2.20263C243.965 -0.168371 240.086 0.281645 238.813 3.07564ZM349.172 3.72063C342.6 7.00463 338.271 11.2667 334.718 17.9517C332.901 21.3707 332.474 23.7896 332.472 30.6736C332.47 37.1896 332.956 40.2236 334.556 43.6736C337.202 49.3816 343.708 55.8826 349.755 58.8606C353.504 60.7076 356.086 61.1706 362.565 61.1596C369.635 61.1476 371.442 60.7536 376.587 58.0996L382.494 55.0536L383.972 58.1136C385.816 61.9306 389.084 62.5396 392.013 59.6106C394.127 57.4966 394.184 56.8706 393.741 40.7986C393.34 26.2666 392.993 23.5096 390.984 18.9036C388.104 12.2976 379.806 4.49362 373.307 2.27962C370.715 1.39662 365.596 0.673637 361.932 0.673637C356.507 0.673637 354.137 1.23963 349.172 3.72063ZM413.2 2.33562C412.513 2.61362 411.95 3.75162 411.95 4.86562C411.95 5.98062 417.575 17.5756 424.45 30.6346C431.325 43.6926 436.95 54.9396 436.95 55.6276C436.95 56.3146 434.452 62.5216 431.399 69.4206C428.347 76.3186 425.984 82.9016 426.149 84.0476C426.326 85.2746 427.589 86.5326 429.216 87.1016C431.306 87.8336 432.324 87.7166 433.385 86.6226C434.158 85.8256 442.76 67.2057 452.502 45.2447C465.866 15.1177 469.973 4.92965 469.231 3.74465C468.691 2.88065 466.859 2.03465 465.161 1.86465C462.813 1.62965 461.734 2.10965 460.658 3.86465C459.88 5.13465 455.465 14.8246 450.847 25.3986C446.229 35.9726 442.22 44.6356 441.939 44.6486C441.658 44.6626 436.597 34.9986 430.692 23.1736C420.539 2.84164 419.806 1.67765 417.203 1.75265C415.689 1.79565 413.888 2.05862 413.2 2.33562ZM372.074 12.7646C376.56 15.0186 380.399 19.4746 381.979 24.2606C382.639 26.2606 382.98 30.2986 382.737 33.2336C382.223 39.4326 378.539 45.5286 373.38 48.7166C368.59 51.6776 360.966 52.3336 355.52 50.2536C349.951 48.1266 344.409 42.0926 342.909 36.5226C340.696 28.3036 344.128 18.9016 351.107 14.0656C357.791 9.43263 364.601 9.01064 372.074 12.7646ZM37.732 12.2266C42.662 14.2856 46.785 18.2716 49.054 23.1736C51.16 27.7216 51.396 31.5276 49.906 36.8926C47.585 45.2506 39.824 50.6736 30.186 50.6736C25.433 50.6736 23.473 50.1226 19.692 47.7256C13.764 43.9656 10.95 38.6716 10.95 31.2786C10.95 28.2676 11.429 24.5366 12.014 22.9886C14.478 16.4656 22.967 10.7376 30.232 10.6956C32.312 10.6836 35.687 11.3726 37.732 12.2266ZM130.319 14.3716C132.506 15.9126 135.379 19.1986 136.701 21.6736C138.669 25.3556 139.039 27.2876 138.738 32.3046C138.476 36.6796 137.691 39.4276 136 41.8956C129.428 51.4866 116.895 54.0046 107.561 47.6086C102.278 43.9896 99.6201 39.2626 99.1411 32.6356C98.8081 28.0316 99.19 25.8087 100.936 22.2017C103.281 17.3577 107.957 13.1327 112.635 11.6327C114.183 11.1357 117.9 10.9186 120.895 11.1496C124.777 11.4486 127.483 12.3736 130.319 14.3716Z"
        fill="#ddd" />
</svg>